<svg width="108" height="21" viewBox="0 0 108 21" fill="none" xmlns="http://www.w3.org/2000/svg">
<g clip-path="url(#clip0_82_57)">
<path d="M62.42 8.51001V2.17001C62.42 1.29001 62.57 0.920007 63.59 0.910007C66.76 0.910007 66.76 0.850007 66.76 4.00001C66.76 6.62001 66.76 6.62001 69.33 6.62001C72.62 6.62001 72.62 6.62001 72.62 3.31001C72.62 0.920007 72.62 1.01001 75.09 0.890007C76.55 0.840007 77 1.19001 77 2.74001C76.88 6.74001 76.92 10.74 77 14.74C77 15.8 76.72 16.15 75.63 16.14C72.63 16.14 72.63 16.14 72.63 13.28C72.63 10.18 72.63 10.18 69.47 10.18C66.77 10.18 66.77 10.18 66.77 12.95C66.77 16.27 66.77 16.22 63.51 16.14C62.57 16.14 62.42 15.75 62.44 14.94C62.45 12.83 62.42 10.67 62.42 8.51001Z" fill="#FF0000"/>
<path d="M98.93 5.18001C101.49 3.85001 103.85 3.76001 105.93 5.64001C106.868 6.46842 107.528 7.56518 107.822 8.78159C108.115 9.998 108.027 11.2752 107.57 12.44C107.361 13.1414 107.017 13.7948 106.555 14.3629C106.094 14.931 105.526 15.4026 104.882 15.7509C104.238 16.0991 103.533 16.3172 102.805 16.3925C102.077 16.4679 101.341 16.399 100.64 16.19C100.317 16.0901 100.002 15.963 99.7 15.81C99.28 15.61 99.07 15.08 98.41 15.97C97.75 16.86 96.16 16.35 95.04 16.09C94.36 15.94 94.72 15 94.71 14.43V1.43001C94.71 0.430014 94.9 -0.00998607 96.05 1.39282e-05C98.93 1.39282e-05 98.93 1.38283e-05 98.93 2.80001V5.18001ZM103.72 10.32C103.72 8.63001 102.81 7.51001 101.35 7.48001C99.89 7.45001 98.89 8.48001 98.88 10.22C98.87 11.96 99.78 13.03 101.24 13.06C101.563 13.064 101.884 13.0043 102.184 12.8843C102.484 12.7643 102.757 12.5864 102.988 12.3608C103.22 12.1351 103.404 11.8661 103.531 11.5692C103.659 11.2722 103.726 10.9531 103.73 10.63C103.73 10.52 103.73 10.41 103.73 10.3L103.72 10.32Z" fill="#FF0000"/>
<path d="M4.79 1.00002C6.36552 0.918388 7.94524 1.0123 9.5 1.28002C10.8859 1.54309 12.1139 2.33804 12.9212 3.49484C13.7285 4.65163 14.0511 6.07842 13.82 7.47002C13.6062 8.74896 12.9567 9.91461 11.9816 10.7694C11.0066 11.6242 9.76592 12.1155 8.47 12.16H7.85C6.77 12.16 5.41 11.85 4.71 12.38C4.19 12.78 4.49 14.31 4.51 15.38C4.51 16.07 4.29 16.22 3.64 16.26C0.189999 16.42 0.169999 16.44 0.199999 13C0.199999 11.67 -0.370001 9.93002 0.429999 9.13002C1.23 8.33002 3 8.93002 4.31 8.88002H6.93C8.81 8.74002 9.6 8.00002 9.5 6.52002C9.4 5.04002 8.5 4.45002 6.8 4.43002C5.1 4.41002 3.19 4.43002 1.39 4.43002C0.499999 4.43002 -7.89762e-07 4.30002 0.169999 3.28002C0.234009 2.85575 0.234009 2.42428 0.169999 2.00002C0.0699992 1.23002 0.299999 0.890019 1.17 1.00002C2.3 1.00002 3.44 1.00002 4.79 1.00002Z" fill="white"/>
<path d="M47.23 4.45002C51.38 4.29002 51.38 4.29002 52.86 7.94002C53.3 9.02002 53.75 10.1 54.32 11.49C55.12 9.57002 55.94 7.92002 56.49 6.19002C56.93 4.79002 57.62 4.14002 59.11 4.39002C59.7757 4.44002 60.4443 4.44002 61.11 4.39002C59.81 7.54002 58.57 10.57 57.31 13.59C56.78 14.88 56.26 16.17 55.64 17.41C55.0109 18.7212 53.8955 19.7356 52.5307 20.2378C51.1658 20.7401 49.659 20.6906 48.33 20.1C47.57 19.77 47.33 19.42 47.76 18.59C48.19 17.76 48.43 16.23 50.15 17.22C50.4489 17.3176 50.7698 17.326 51.0734 17.2443C51.3771 17.1627 51.6504 16.9944 51.86 16.76C52.47 16.22 51.92 15.7 51.73 15.23C50.31 11.7 48.8 8.18002 47.23 4.45002Z" fill="white"/>
<path d="M26.68 12.36V13.44C26.68 16.44 26.51 16.57 23.5 16.16H23.2C22.48 14.47 21.7 16 21.01 16.16C20.1775 16.4357 19.2886 16.4959 18.4265 16.335C17.5644 16.1741 16.7571 15.7974 16.08 15.24C15.757 14.9703 15.4906 14.6394 15.296 14.2663C15.1015 13.8933 14.9827 13.4854 14.9464 13.0662C14.9102 12.647 14.9572 12.2247 15.0848 11.8238C15.2124 11.4229 15.4181 11.0511 15.69 10.73C16.0114 10.3576 16.4109 10.0606 16.86 9.86001C18.2138 9.37168 19.6538 9.16744 21.09 9.26001C21.54 9.26001 22.29 9.62001 22.4 8.92001C22.51 8.22001 21.87 7.72001 21.19 7.55001C20.0885 7.2221 18.9041 7.31842 17.87 7.82001C15.99 8.82001 16.37 6.92001 15.87 6.31001C15.11 5.37001 16.17 5.25001 16.7 5.02001C18.5676 4.24238 20.6217 4.0269 22.61 4.40001C23.672 4.52164 24.6551 5.02067 25.3801 5.80624C26.1051 6.5918 26.5238 7.61164 26.56 8.68001C26.68 9.91001 26.68 11.14 26.73 12.38L26.68 12.36ZM21.22 11.36C20.32 11.51 19.08 11.13 19.04 12.63C19.04 13.51 19.75 13.63 20.46 13.63C21.52 13.63 22.46 13.31 22.46 12.06C22.46 10.81 21.68 11.58 21.22 11.39V11.36Z" fill="white"/>
<path d="M92.14 10.28C92.14 11.83 92.07 13.38 92.14 14.92C92.2 15.98 91.76 16.38 90.82 16.14C89.88 15.9 88.51 17 88 15.29C87.72 15.41 87.44 15.52 87.18 15.65C83.38 17.65 79.85 15.58 79.73 11.31C79.73 9.31 79.73 7.39 79.73 5.44C79.73 4.62 80 4.44 80.8 4.37C83.8 4.26 83.8 4.23 83.8 7.37V10.46C83.8 11.68 84.12 12.75 85.64 12.84C86.99 12.92 87.81 12.13 87.9 10.5C87.98 8.90434 87.98 7.30567 87.9 5.71C87.9 4.71 88.23 4.41 89.23 4.42C92.09 4.42 92.09 4.42 92.09 7.24L92.14 10.28Z" fill="#FF0000"/>
<path d="M42.16 1.83003C43.43 1.48003 44.16 1.95003 43.86 3.61003C43.68 4.53003 44 5.00003 45 4.82003C46.3 4.58003 46.63 5.12003 46.62 6.40003C46.61 7.68003 46.28 8.12003 45.07 7.90003C43.86 7.68003 43.72 8.22003 43.83 9.19003C43.87 9.80938 43.87 10.4307 43.83 11.05C43.83 12.47 44.12 13.29 45.83 13.05C47.01 12.91 46.67 14.3 47.08 14.95C47.49 15.6 46.94 15.84 46.43 16.03C42.86 17.39 39.78 15.34 39.72 11.57V9.40003C39.72 8.68003 39.86 7.81003 38.54 7.81003C37.47 7.81003 38.02 6.81003 37.99 6.23003C37.96 5.65003 37.53 4.80003 38.58 4.81003C39.63 4.82003 39.75 4.40003 39.74 3.52003C39.76 1.83003 39.81 1.83003 42.16 1.83003Z" fill="white"/>
<path d="M29.3 10.28V5.49002C29.3 4.58002 29.62 4.18002 30.43 4.43002C31.43 4.72002 32.86 3.49002 33.43 5.31002C33.5638 5.30753 33.696 5.28041 33.82 5.23002C34.04 5.11002 34.23 4.92002 34.46 4.82002C35.3 4.45002 36.46 3.82002 37.03 4.43002C37.6 5.04002 37.22 6.43002 37.22 7.43002C37.22 7.97002 36.71 7.78002 36.39 7.83002C34.06 8.18002 33.51 8.83002 33.47 11.15V15.32C33.47 16 33.26 16.16 32.59 16.2C29.35 16.38 29.35 16.4 29.35 13.2L29.3 10.28Z" fill="white"/>
</g>
<defs>
<clipPath id="clip0_82_57">
<rect width="107.95" height="20.58" fill="white"/>
</clipPath>
</defs>
</svg>
